<svg width="320" height="45" viewBox="0 0 320 45" fill="none" xmlns="http://www.w3.org/2000/svg">
<path fill-rule="evenodd" clip-rule="evenodd" d="M134.24 3.89795C135.372 3.89795 136.302 4.20298 137.027 4.81254C137.752 5.4226 138.114 6.20779 138.114 7.16714C138.114 8.17903 137.759 9.01579 137.047 9.67741C136.335 10.339 135.4 10.6698 134.24 10.6698C133.08 10.6698 132.144 10.3458 131.433 9.69687C130.721 9.04838 130.365 8.24325 130.365 7.28389C130.365 6.32454 130.721 5.51989 131.433 4.87092C132.144 4.22243 133.107 3.89795 134.24 3.89795ZM99.5276 15.5347C97.7346 14.03 95.2181 13.2774 91.976 13.2774C90.2888 13.2774 88.6283 13.4915 86.9944 13.9196C85.3596 14.3477 83.9629 14.9772 82.8035 15.8071L84.978 20.0493C85.7688 19.4529 86.7107 18.979 87.8049 18.6288C88.8981 18.2785 90.0121 18.1034 91.1458 18.1034C92.8063 18.1034 94.0379 18.4672 94.8425 19.1931C95.646 19.9199 96.0483 20.9318 96.0483 22.2288V22.2677H91.1853C88.997 22.2677 87.2316 22.5275 85.8874 23.0461C84.5431 23.5651 83.5607 24.2983 82.9419 25.245C82.3222 26.1922 82.0128 27.2756 82.0128 28.4947C82.0128 29.7138 82.3355 30.7651 82.9815 31.725C83.6269 32.6853 84.5431 33.4442 85.7292 34.0017C86.9153 34.5592 88.3253 34.8385 89.9597 34.8385C91.8307 34.8385 93.3598 34.4819 94.5459 33.7682C95.347 33.2861 95.9791 32.6707 96.4437 31.922V34.5271H102.216V22.579C102.216 19.3877 101.32 17.0399 99.5276 15.5347ZM96.0483 27.9109C95.7053 28.8712 95.1192 29.5844 94.2889 30.0515C93.4587 30.5185 92.5157 30.752 91.4621 30.752C90.4084 30.752 89.5707 30.5253 88.9515 30.0709C88.3318 29.617 88.0224 29.0007 88.0224 28.2223C88.0224 27.5217 88.2922 26.938 88.8329 26.4709C89.373 26.0039 90.3679 25.7704 91.8179 25.7704H96.0483V27.9109ZM76.6753 13.5888L70.5402 27.8545L64.6562 13.5888H58.3303L67.2656 34.5271H73.5915L82.5663 13.5888H76.6753ZM118.742 13.2774C120.429 13.2774 121.937 13.6082 123.269 14.2698C124.6 14.9315 125.647 15.9434 126.412 17.3055C127.176 18.6677 127.559 20.4132 127.559 22.5401V34.5271H121.391V23.4742C121.391 21.788 121.015 20.5426 120.264 19.7379C119.513 18.9343 118.451 18.5315 117.081 18.5315C116.106 18.5315 115.23 18.7392 114.452 19.1542C113.674 19.5696 113.068 20.1792 112.633 20.9834C112.199 21.788 111.981 22.8515 111.981 24.1747V34.5271H105.813V13.5888H111.704V16.0776C112.315 15.4082 113.039 14.8502 113.879 14.4061C115.302 13.6539 116.923 13.2774 118.742 13.2774ZM137.324 34.5271V13.5888H131.156V34.5271H137.324ZM147.247 5.6493H141.08V34.5271H147.247V5.6493ZM151.003 5.6493H157.171V34.5271H151.003V5.6493ZM177.057 15.5347C175.265 14.03 172.748 13.2774 169.506 13.2774C167.819 13.2774 166.158 13.4915 164.524 13.9196C162.89 14.3477 161.493 14.9772 160.333 15.8071L162.508 20.0493C163.299 19.4529 164.241 18.979 165.335 18.6288C166.428 18.2785 167.542 18.1034 168.676 18.1034C170.336 18.1034 171.568 18.4672 172.372 19.1931C173.176 19.9199 173.578 20.9318 173.578 22.2288V22.2677H168.715C166.527 22.2677 164.762 22.5275 163.417 23.0461C162.073 23.5651 161.091 24.2983 160.472 25.245C159.852 26.1922 159.543 27.2756 159.543 28.4947C159.543 29.7138 159.865 30.7651 160.511 31.725C161.157 32.6853 162.073 33.4442 163.259 34.0017C164.445 34.5592 165.855 34.8385 167.49 34.8385C169.361 34.8385 170.89 34.4819 172.076 33.7682C172.877 33.2861 173.509 32.6707 173.974 31.922V34.5271H179.746V22.579C179.746 19.3877 178.849 17.0399 177.057 15.5347ZM173.578 27.9109C173.235 28.8712 172.649 29.5844 171.819 30.0515C170.989 30.5185 170.046 30.752 168.992 30.752C167.938 30.752 167.101 30.5253 166.481 30.0709C165.862 29.617 165.552 29.0007 165.552 28.2223C165.552 27.5217 165.822 26.938 166.363 26.4709C166.903 26.0039 167.898 25.7704 169.348 25.7704H173.578V27.9109ZM200.324 29.8569C201.299 29.8569 202.195 29.6302 203.013 29.1758C203.829 28.7224 204.528 27.9888 205.108 26.9769L209.853 29.5455C209.114 31.2064 207.908 32.5034 206.235 33.4374C204.561 34.3715 202.657 34.8385 200.364 34.8385C198.071 34.8385 196.035 34.3783 194.255 33.4569C192.476 32.5364 191.079 31.258 190.065 29.6234C189.049 27.9888 188.542 26.1596 188.542 24.0579C188.542 21.9563 189.049 20.1018 190.065 18.4925C191.079 16.8842 192.476 15.6125 194.255 14.6785C196.035 13.7444 198.124 13.2774 200.364 13.2774C202.604 13.2774 204.561 13.7381 206.235 14.659C207.908 15.5804 209.114 16.8842 209.853 18.5704L205.108 21.139C204.528 20.1534 203.829 19.4334 203.013 18.979C202.195 18.5251 201.299 18.298 200.324 18.298C199.296 18.298 198.36 18.5251 197.517 18.979C196.673 19.4334 196.001 20.0882 195.501 20.9444C195 21.8007 194.75 22.8378 194.75 24.0579C194.75 25.2781 195 26.3221 195.501 27.1909C196.001 28.0603 196.673 28.7219 197.517 29.1758C198.36 29.6302 199.296 29.8569 200.324 29.8569ZM227.327 14.659C225.561 13.7381 223.545 13.2774 221.278 13.2774C219.012 13.2774 217.041 13.7381 215.288 14.659C213.535 15.5804 212.158 16.8516 211.157 18.4731C210.155 20.095 209.654 21.9563 209.654 24.0579C209.654 26.1596 210.155 27.9829 211.157 29.6039C212.158 31.2258 213.535 32.5034 215.288 33.4374C217.041 34.3715 219.038 34.8385 221.278 34.8385C223.519 34.8385 225.561 34.3715 227.327 33.4374C229.093 32.5034 230.476 31.2322 231.479 29.6234C232.48 28.015 232.981 26.1596 232.981 24.0579C232.981 21.9563 232.48 20.095 231.479 18.4731C230.476 16.8516 229.093 15.5804 227.327 14.659ZM226.003 27.1715C225.515 28.0539 224.869 28.7224 224.066 29.1758C223.261 29.6302 222.332 29.8569 221.278 29.8569C220.225 29.8569 219.367 29.6302 218.55 29.1758C217.733 28.7219 217.08 28.0539 216.593 27.1715C216.105 26.2899 215.862 25.2518 215.862 24.0579C215.862 22.8641 216.105 21.8007 216.593 20.9444C217.08 20.0882 217.733 19.4334 218.55 18.979C219.367 18.5251 220.29 18.298 221.318 18.298C222.346 18.298 223.261 18.5251 224.066 18.979C224.869 19.4334 225.515 20.0882 226.003 20.9444C226.49 21.8007 226.734 22.8388 226.734 24.0579C226.734 25.2771 226.49 26.2899 226.003 27.1715ZM248.954 14.445C249.572 14.803 250.125 15.2467 250.614 15.7745V5.6493H256.782V34.5271H250.891V32.1365C250.363 32.7704 249.751 33.289 249.053 33.6904C247.721 34.4561 246.12 34.8385 244.249 34.8385C242.246 34.8385 240.44 34.3909 238.833 33.4958C237.224 32.6007 235.959 31.3489 235.037 29.7401C234.114 28.1318 233.653 26.2374 233.653 24.0579C233.653 21.8785 234.114 19.9846 235.037 18.3758C235.959 16.7675 237.224 15.5152 238.833 14.6201C240.44 13.725 242.246 13.2774 244.249 13.2774C246.041 13.2774 247.61 13.6666 248.954 14.445ZM248.045 29.1758C248.861 28.7224 249.513 28.0539 250.002 27.1715C250.489 26.29 250.733 25.2771 250.733 24.0579C250.733 22.8388 250.489 21.8007 250.002 20.9444C249.513 20.0882 248.861 19.4334 248.045 18.979C247.227 18.5251 246.279 18.298 245.277 18.298C244.275 18.298 243.366 18.5251 242.549 18.979C241.732 19.4334 241.079 20.0882 240.592 20.9444C240.104 21.8007 239.861 22.8641 239.861 24.0579C239.861 25.2518 240.104 26.29 240.592 27.1715C241.079 28.0539 241.732 28.7219 242.549 29.1758C243.366 29.6302 244.249 29.8569 245.277 29.8569C246.305 29.8569 247.227 29.6302 248.045 29.1758ZM266.369 4.81254C265.644 4.20298 264.715 3.89795 263.582 3.89795C262.449 3.89795 261.487 4.22244 260.775 4.87092C260.063 5.5199 259.707 6.32454 259.707 7.2839C259.707 8.24325 260.063 9.04838 260.775 9.69687C261.487 10.3458 262.422 10.6698 263.582 10.6698C264.742 10.6698 265.677 10.339 266.389 9.67741C267.101 9.01579 267.457 8.17903 267.457 7.16714C267.457 6.20779 267.094 5.4226 266.369 4.81254ZM260.498 13.5888H266.666V34.5271H260.498V13.5888ZM287.877 14.2698C286.546 13.6082 285.037 13.2774 283.35 13.2774C281.532 13.2774 279.911 13.654 278.487 14.4061C277.648 14.8502 276.923 15.4082 276.313 16.0776V13.5888H270.422V34.5271H276.59V24.1747C276.59 22.8515 276.807 21.788 277.242 20.9834C277.677 20.1792 278.283 19.5696 279.061 19.1542C279.838 18.7392 280.714 18.5315 281.69 18.5315C283.06 18.5315 284.121 18.9343 284.873 19.738C285.624 20.5426 285.999 21.788 285.999 23.4742V34.5271H292.167V22.5401C292.167 20.4132 291.785 18.6677 291.02 17.3055C290.255 15.9434 289.208 14.9315 287.877 14.2698ZM312.014 16.246V13.5892H317.865V31.0249C317.865 34.8905 316.837 37.7511 314.782 39.6065C312.726 41.461 309.773 42.3892 305.925 42.3892C303.922 42.3892 301.991 42.1489 300.133 41.6692C298.275 41.1886 296.726 40.4691 295.488 39.5092L297.939 35.1114C298.861 35.8635 300.001 36.4541 301.359 36.8822C302.716 37.3103 304.093 37.5244 305.49 37.5244C307.651 37.5244 309.233 37.0437 310.235 36.0844C311.236 35.1241 311.737 33.6977 311.737 31.8033V30.8503C311.164 31.4949 310.499 32.0198 309.741 32.4255C308.383 33.1523 306.861 33.5152 304.937 33.5152C303.012 33.5152 301.247 33.0939 299.639 32.2504C298.031 31.4078 296.753 30.2266 295.804 28.7088C294.855 27.1909 294.381 25.4454 294.381 23.3963C294.381 21.3472 294.855 19.5628 295.804 18.045C296.753 16.5271 298.031 15.3537 299.639 14.5228C301.247 13.6929 303.093 13.2774 304.937 13.2774C306.781 13.2774 308.383 13.6345 309.741 14.3477C310.624 14.8123 311.381 15.4457 312.014 16.246ZM309.088 27.9109C309.931 27.4702 310.591 26.8601 311.065 26.0817C311.54 25.3034 311.777 24.4335 311.777 23.3963C311.777 22.3591 311.54 21.4572 311.065 20.6915C310.591 19.9267 309.931 19.3361 309.088 18.9207C308.245 18.5057 307.257 18.298 306.202 18.298C305.147 18.298 304.192 18.5057 303.336 18.9207C302.479 19.3361 301.807 19.9267 301.319 20.6915C300.831 21.4572 300.588 22.3844 300.588 23.3963C300.588 24.4082 300.831 25.3034 301.319 26.0817C301.807 26.8601 302.479 27.4702 303.336 27.9109C304.192 28.3522 305.122 28.5725 306.202 28.5725C307.282 28.5725 308.244 28.3522 309.088 27.9109Z" fill="#292A2D"/>
<path fill-rule="evenodd" clip-rule="evenodd" d="M43.8867 17.4252L46.2589 15.0901H46.2594L38.3659 7.31992C37.594 6.56003 36.3421 6.56003 35.5702 7.31992L30.0489 12.7549L24.5276 7.31992C23.7556 6.56003 22.5038 6.56003 21.7318 7.31992L16.2105 12.7549L10.6892 7.31992C9.91728 6.56003 8.66545 6.56003 7.8935 7.31992L0 15.0901L2.3722 17.4252L9.29112 10.6144L14.8124 16.0494C15.5844 16.8093 16.8362 16.8093 17.6082 16.0494L23.1295 10.6144L28.6507 16.0494C29.4227 16.8093 30.6745 16.8093 31.4465 16.0494L36.9678 10.6144L43.8867 17.4252ZM43.8867 36.0097L46.2589 33.6746H46.2594L38.3659 25.9044C37.594 25.1445 36.3421 25.1445 35.5702 25.9044L30.0489 31.3394L24.5276 25.9044C23.7556 25.1445 22.5038 25.1445 21.7318 25.9044L16.2105 31.3394L10.6892 25.9044C9.91728 25.1445 8.66545 25.1445 7.8935 25.9044L0 33.6746L2.3722 36.0097L9.29112 29.1989L14.8124 34.6339C15.5844 35.3938 16.8362 35.3938 17.6082 34.6339L23.1295 29.1989L28.6507 34.6339C29.4227 35.3938 30.6745 35.3938 31.4465 34.6339L36.9678 29.1989L43.8867 36.0097Z" fill="#292A2D"/>
</svg>
